<?xml version="1.0" encoding="utf-8"?>
<!-- Generator: Adobe Illustrator 22.0.0, SVG Export Plug-In . SVG Version: 6.00 Build 0)  -->
<svg version="1.1" id="图层_1" xmlns="http://www.w3.org/2000/svg" xmlns:xlink="http://www.w3.org/1999/xlink" x="0px" y="0px"
	 viewBox="0 0 200 200" style="enable-background:new 0 0 200 200;" xml:space="preserve">
<path d="M92.6,5.9c-6.5,0-5.5,1.8-9.2,2.8s1-1-10.2,1.8C62.1,12.4,58.3,26.3,58.3,31c-1,4.7-1,19.4,0,27c1,4.7-2.8,4.7-2.8,4.7
	c-6.5,0-3.7,19.4-3.7,19.4c1,4.7,0,7.4,9.2,11.1c4.7,13.1,15.8,19.4,15.8,19.4s1,8.4,1,13.9c-1-1,2.8,14.9-26,19.4
	c-29.7,4.7-35.2,13.9-40.9,19.4c-5.7,5.5-5.5,29.7-5.5,29.7h189.1c0,0-1-24.1-6.5-29.7c-5.5-5.5-11.1-14.9-40.9-19.4
	c-29.7-4.7-24.1-19.4-24.1-20.4c0-1.8,1-12.1,1-12.1s9.2-8.4,13.9-20.4c7.4-4.7,10.2-5.5,11.1-10.2c0,0,2.8-19.4-5.5-19.4
	c0,0-2.8,1-1.8-3.7c1-4.7,1-18.6,0-24.1c-1-4.7,1-19.4-9.2-21.3c-7.4-1-8.4,1-12.1,0s-7.4-9.2-14.9-9.2L92.6,5.9L92.6,5.9z"/>
</svg>
