<?xml version="1.0" encoding="utf-8"?>
<!-- Generator: Adobe Illustrator 22.0.0, SVG Export Plug-In . SVG Version: 6.00 Build 0)  -->
<svg version="1.1" id="图层_1" xmlns="http://www.w3.org/2000/svg" xmlns:xlink="http://www.w3.org/1999/xlink" x="0px" y="0px"
	 viewBox="0 0 200 200" style="enable-background:new 0 0 200 200;" xml:space="preserve">
<g>
	<path d="M76.4,101V17.2c-0.1-6.6,3.9-12,8.9-12l0,0h30c5,0,9,5.4,9,12v83.9"/>
	<path d="M124.4,99.5v83.8c0.1,6.6-3.9,12-8.9,12l0,0h-30c-5,0-9-5.4-9-12V99.4"/>
</g>
<path d="M183.4,76.3h-82.2v0H17.4c-6.6,0-12,4-12,9v30c0,5,5.4,9,12,8.9h82.2v0h83.9c6.6,0,12-4,12-9v-30
	C195.4,80.2,190,76.2,183.4,76.3z"/>
</svg>
