<?xml version="1.0" encoding="utf-8"?>
<!-- Generator: Adobe Illustrator 22.0.0, SVG Export Plug-In . SVG Version: 6.00 Build 0)  -->
<svg version="1.1" id="图层_1" xmlns="http://www.w3.org/2000/svg" xmlns:xlink="http://www.w3.org/1999/xlink" x="0px" y="0px"
	 viewBox="0 0 200 200" style="enable-background:new 0 0 200 200;" xml:space="preserve">
<path d="M48.9,45.1c0,19.7,15.3,35.6,34.1,35.6s34.1-15.9,34.1-35.6l0,0c0-19.7-15.3-35.6-34.1-35.6S48.9,25.5,48.9,45.1z"/>
<path d="M155.6,159.5c-2.6-5.7-7.9-22.6-13.9-22.6c-6.1,0-6.5,2.3-6.5,2.3l6.5,17.5l-33.5-2.9L94,120.3c-13.8-34.1-27.7-38-41.2-38
	c-6.5,0-20.3,0.8-30.8,14.1s-17,87-17,87h64.1l-23-44.8l9.7-6.2c0,0,1.7,3.7,13,27.8s19,27.3,19,27.3h60.3c8.9,0,16-2.9,16-14.3
	S155.6,159.5,155.6,159.5L155.6,159.5z"/>
<path d="M133,93c0,0-6.2,12-11.2,17.2c-4.9,5.2-13,18.9-5.5,29.5l21-36.6l44.3,21.1l-16.2,24.7c0,0-1.9,10.3,1.4,10.7
	c3.2,0.4,28.1-40.1,28.1-40.1L133,93L133,93z"/>
</svg>
