<?xml version="1.0" encoding="utf-8"?>
<!-- Generator: Adobe Illustrator 22.0.0, SVG Export Plug-In . SVG Version: 6.00 Build 0)  -->
<svg version="1.1" id="图层_1" xmlns="http://www.w3.org/2000/svg" xmlns:xlink="http://www.w3.org/1999/xlink" x="0px" y="0px"
	 viewBox="0 0 200 200" style="enable-background:new 0 0 200 200;" xml:space="preserve">
<path d="M109.8,100l37.9,37.9c2.5,2.7,2.5,6.9,0,9.5c-2.7,2.5-6.8,2.5-9.5,0l-37.9-37.9L60.8,149c-2.7,2.6-7.1,2.6-9.8,0
	c-2.6-2.7-2.6-7.1,0-9.8l39.5-39.5L52.5,61.8c-2.5-2.7-2.5-6.8,0-9.5c2.7-2.5,6.8-2.5,9.5,0L100,90.2L139.2,51
	c2.7-2.6,7.1-2.6,9.8,0c2.6,2.7,2.6,7.1,0,9.8L109.8,100z"/>
</svg>
