<?xml version="1.0" encoding="utf-8"?>
<!-- Generator: Adobe Illustrator 22.0.0, SVG Export Plug-In . SVG Version: 6.00 Build 0)  -->
<svg version="1.1" id="图层_1" xmlns="http://www.w3.org/2000/svg" xmlns:xlink="http://www.w3.org/1999/xlink" x="0px" y="0px"
	 viewBox="0 0 200 200" style="enable-background:new 0 0 200 200;" xml:space="preserve">
<path d="M109.6,185.5V100h85.5v85.5H109.6z M147.6,119h-19v19h19V119z M176.1,119h-19v19h19V119z M5.1,14.5h85.5v171H5.1V14.5z
	 M52.6,109.5h19v-19h-19V109.5z M52.6,81h19V62h-19V81z M52.6,52.5h19v-19h-19V52.5z M24.1,109.5h19v-19h-19V109.5z M24.1,81h19V62
	h-19V81z M24.1,52.5h19v-19h-19V52.5z"/>
</svg>
