<?xml version="1.0" standalone="no"?><!DOCTYPE svg PUBLIC "-//W3C//DTD SVG 1.1//EN" "http://www.w3.org/Graphics/SVG/1.1/DTD/svg11.dtd"><svg t="1586509886671" class="icon" viewBox="0 0 1024 1024" version="1.1" xmlns="http://www.w3.org/2000/svg" p-id="3456" xmlns:xlink="http://www.w3.org/1999/xlink" width="200" height="200"><defs><style type="text/css"></style></defs><path d="M798.890667 127.829333H224.085333C171.178667 127.829333 128.256 170.666667 128.256 223.658667v31.914666h766.464v-31.914666c0-52.906667-42.922667-95.829333-95.829333-95.829334zM631.552 63.914667l14.08 100.864H377.344L391.424 63.914667H631.466667z m7.68-63.829334H383.744a56.832 56.832 0 0 0-54.613333 47.445334L310.613333 181.162667a40.618667 40.618667 0 0 0 41.301334 47.445333h319.317333c26.368 0 44.970667-21.333333 41.301333-47.445333L693.674667 47.530667A56.832 56.832 0 0 0 639.317333 0z m175.616 319.317334H208.213333a57.429333 57.429333 0 0 0-58.197333 63.658666l52.394667 575.317334c3.157333 34.986667 34.474667 63.658667 69.632 63.658666H750.933333c35.072 0 66.56-28.672 69.632-63.658666L872.96 383.146667a57.429333 57.429333 0 0 0-58.026667-63.658667zM383.744 894.293333H287.914667L256 447.146667h127.744v447.146666z m191.573333 0H447.573333V447.146667h127.744v447.146666z m159.744 0H639.146667V447.146667h127.744l-31.914667 447.146666z" p-id="3457"></path></svg>