<?xml version="1.0" encoding="utf-8"?>
<!-- Generator: Adobe Illustrator 22.0.0, SVG Export Plug-In . SVG Version: 6.00 Build 0)  -->
<svg version="1.1" id="图层_1" xmlns="http://www.w3.org/2000/svg" xmlns:xlink="http://www.w3.org/1999/xlink" x="0px" y="0px"
	 viewBox="0 0 200 200" style="enable-background:new 0 0 200 200;" xml:space="preserve">
<path d="M123.7,54.1c0,3.2-1.9,5.7-4.3,5.7H80.2c-2.4,0-4.3-2.6-4.3-5.7l0-43.5c0-3.1,1.9-5.7,4.3-5.7h39.2c2.3,0,4.3,2.6,4.3,5.7
	V54.1L123.7,54.1z M123.7,189.3c0,3.1-1.9,5.7-4.3,5.7H80.2c-2.4,0-4.3-2.6-4.3-5.7l0-43.5c0-3.1,1.9-5.7,4.3-5.7h39.2
	c2.3,0,4.3,2.6,4.3,5.7V189.3L123.7,189.3z M194.5,189.3c0,3.1-1.9,5.7-4.3,5.7H151c-2.3,0-4.3-2.6-4.3-5.7v-43.5
	c0-3.1,1.9-5.7,4.3-5.7h39.3c2.4,0,4.2,2.6,4.2,5.7L194.5,189.3L194.5,189.3L194.5,189.3z M52.8,189.3c0,3.1-1.9,5.7-4.3,5.7H9.3
	c-2.4,0-4.3-2.6-4.3-5.7l0-43.5c0-3.1,1.9-5.7,4.3-5.7h39.2c2.4,0,4.3,2.6,4.3,5.7L52.8,189.3L52.8,189.3L52.8,189.3z M106.7,84.4
	V68.2H92.9v16.1H22.4v20.4v0.6v26.2h13.8l0-26.2h56.6v26.2h13.8v-26.2h56.6v26.2h13.8l0-26.2v-0.6V84.4H106.7z"/>
</svg>
