<?xml version="1.0" encoding="utf-8"?>
<!-- Generator: Adobe Illustrator 22.0.0, SVG Export Plug-In . SVG Version: 6.00 Build 0)  -->
<svg version="1.1" id="图层_1" xmlns="http://www.w3.org/2000/svg" xmlns:xlink="http://www.w3.org/1999/xlink" x="0px" y="0px"
	 viewBox="0 0 200 200" style="enable-background:new 0 0 200 200;" xml:space="preserve">
<path d="M85,5.2h29.7c4.9,0,8.9,4,8.9,8.9v62.4h32.5c4.1,0,7.4,3.3,7.4,7.4c0,2-0.8,3.9-2.2,5.3L105,145.6c-2.8,2.8-7.3,2.8-10.1,0
	L38.3,89.1c-2.9-2.9-2.9-7.6,0-10.5c1.4-1.4,3.3-2.2,5.3-2.2h32.6V14.1C76.1,9.2,80.1,5.2,85,5.2L85,5.2z"/>
<path d="M194.9,144.8v41.6c0,4.9-4,8.9-8.9,8.9H13.8c-4.9,0-8.9-4-8.9-8.9v-41.6c0-4.9,4-8.9,8.9-8.9h54.5l18.2,18.2
	c7.4,7.4,19.5,7.5,26.9,0.1l0.1-0.1l18.2-18.2H186C190.9,135.9,194.9,139.8,194.9,144.8L194.9,144.8z M148.9,177.4
	c0-4.1-3.3-7.4-7.4-7.4s-7.4,3.3-7.4,7.4s3.3,7.4,7.4,7.4C145.5,184.8,148.9,181.5,148.9,177.4L148.9,177.4L148.9,177.4z
	 M172.6,177.4c0-4.1-3.3-7.4-7.4-7.4s-7.4,3.3-7.4,7.4s3.3,7.4,7.4,7.4C169.3,184.8,172.6,181.5,172.6,177.4L172.6,177.4
	L172.6,177.4z"/>
</svg>
