<?xml version="1.0" encoding="utf-8"?>
<!-- Generator: Adobe Illustrator 22.0.0, SVG Export Plug-In . SVG Version: 6.00 Build 0)  -->
<svg version="1.1" id="图层_1" xmlns="http://www.w3.org/2000/svg" xmlns:xlink="http://www.w3.org/1999/xlink" x="0px" y="0px"
	 viewBox="0 0 209.8 200" style="enable-background:new 0 0 209.8 200;" xml:space="preserve">
<style type="text/css">
	
</style>
<path class="st0" d="M198.9,182.5c0,7.7-6.2,13.9-13.9,13.9H91.8c-7.7,0-13.9-6.2-13.9-13.9c0-7.7,6.2-13.9,13.9-13.9H185
	C192.6,168.6,198.9,174.8,198.9,182.5L198.9,182.5z M198.9,143.2c0,7.7-6.2,13.9-13.9,13.9h-52.9c-7.7,0-13.9-6.2-13.9-13.9
	c0-7.7,6.2-13.9,13.9-13.9H185C192.6,129.3,198.9,135.5,198.9,143.2L198.9,143.2z M143.4,73.4L52.8,175.3l-38.4,7.9
	c-2.1,0.4-3.8-1.2-3.5-3.3l5.6-38.7l89.8-100.9c2.1-2.3,5.4-2.7,7.5-0.8l29.6,26.3C145.5,67.7,145.5,71.1,143.4,73.4L143.4,73.4z
	 M169.6,44l-13.9,15.6c-1.1,1.3-3,1.4-4.3,0.3l-32.6-29c-1.3-1.1-1.4-3-0.3-4.3L132.4,11c5-5.7,13.7-6.2,19.4-1.1l16.7,14.8
	C174.1,29.7,174.6,38.4,169.6,44z"/>
</svg>
