<?xml version="1.0" encoding="utf-8"?>
<!-- Generator: Adobe Illustrator 22.0.0, SVG Export Plug-In . SVG Version: 6.00 Build 0)  -->
<svg version="1.1" id="图层_1" xmlns="http://www.w3.org/2000/svg" xmlns:xlink="http://www.w3.org/1999/xlink" x="0px" y="0px"
	 viewBox="0 0 200 200" style="enable-background:new 0 0 200 200;" xml:space="preserve">
<style type="text/css">
</style>
<path class="st0" d="M100.4,123.3c20.5,0,47.4-27.3,47.4-61.9c0-34.6-17.3-48.2-47.4-48.2S52.2,26.4,52.2,61.4
	C52.2,95.7,79.9,123.3,100.4,123.3z M194.2,168.5c-2.3-6.5-5.1-12.9-7.7-15.8c-5-5.3-33.6-20.5-46.3-27.1c-3.3-1.7-7.4-0.5-9.2,2.8
	l-14.5,26.7c-2,3.8-7.7,2.7-8.3-1.5c-0.1-0.9,0-1.8,0.5-2.7l3.2-6.1c0.8-1.6,0.6-3.5-0.5-4.9l-6.1-7.2c-2.4-2.9-6.8-3.3-9.7-0.8
	c-0.3,0.3-0.6,0.5-0.8,0.8l-6.1,7.2c-1.2,1.4-1.4,3.3-0.5,4.9l3.2,6.1c0.4,0.8,0.6,1.7,0.5,2.7c-0.6,4.2-6.3,5.3-8.3,1.5L69,128.4
	c-1.8-3.3-5.9-4.6-9.2-2.8c-12.7,6.6-41.3,21.8-46.3,27.1c-2.7,2.9-5.4,9.3-7.7,15.8c-3.2,9,3.4,18.4,13,18.4h162.5
	C190.8,186.8,197.4,177.4,194.2,168.5L194.2,168.5z"/>
</svg>
