<?xml version="1.0" encoding="utf-8"?>
<!-- Generator: Adobe Illustrator 22.0.0, SVG Export Plug-In . SVG Version: 6.00 Build 0)  -->
<svg version="1.1" id="图层_1" xmlns="http://www.w3.org/2000/svg" xmlns:xlink="http://www.w3.org/1999/xlink" x="0px" y="0px"
	 viewBox="0 0 200 200" style="enable-background:new 0 0 200 200;" xml:space="preserve">
<path d="M198.8,82.6c0,0-35.9-48.8-52.6-73.4c-2.1-2.9-5.2-5-8.5-5.5c-6.7-1-12.4,3.2-14.2,8.9L118.8,44
	c-48.2-7.3-70,41.2-75.8,79.4l-0.8,5c21.5-24.8,43.5-35,69.4-31.9l-4.8,31.6c-0.8,5,3.4,10.7,10.1,11.7c3.4,0.5,6.9-0.6,9.8-2.7
	C149.9,118.4,198.8,82.6,198.8,82.6z"/>
<path d="M155.6,121.3v3.9l0,0v26.4l0,0v11.1H29.7V13.1H19c-5.9,0-10.7,4.8-10.7,10.7V171c0,5.9,4.8,10.7,10.7,10.7h147.3
	c5.9,0,10.7-4.8,10.7-10.7v-53.2C171,116.6,162.7,116.6,155.6,121.3z"/>
</svg>
