<?xml version="1.0" encoding="utf-8"?>
<!-- Generator: Adobe Illustrator 22.0.0, SVG Export Plug-In . SVG Version: 6.00 Build 0)  -->
<svg version="1.1" id="图层_1" xmlns="http://www.w3.org/2000/svg" xmlns:xlink="http://www.w3.org/1999/xlink" x="0px" y="0px"
	 viewBox="0 0 200 200" style="enable-background:new 0 0 200 200;" xml:space="preserve">
<style type="text/css">
	.st0{fill:#F4A46E;}
</style>
<path class="st0" d="M194.2,88.7l-37.9,77.1c-1.9,3.9-5.8,6.5-10.1,6.8H24.8c-2.3,0.2-4.4-1.5-4.6-3.9c-0.1-1,0.2-2.1,0.8-2.9
	l37.9-77.1c1.9-3.9,5.8-6.5,10.1-6.8h121.5c2.3-0.2,4.4,1.5,4.6,3.9C195.1,86.8,194.8,87.8,194.2,88.7z M163.8,68.2h-113L5.1,163.5
	v-127c0-5,4.1-9.1,9.1-9.1c0,0,0,0,0,0h59c5,0,9.1,4.1,9.1,9.1c0,0,0,0,0,0v9.1h81.6c5,0,9.1,4.1,9.1,9.1c0,0,0,0,0,0v4.5
	C172.8,64.2,168.8,68.2,163.8,68.2L163.8,68.2L163.8,68.2z"/>
</svg>
