<?xml version="1.0" encoding="utf-8"?>
<!-- Generator: Adobe Illustrator 22.0.0, SVG Export Plug-In . SVG Version: 6.00 Build 0)  -->
<svg version="1.1" id="图层_1" xmlns="http://www.w3.org/2000/svg" xmlns:xlink="http://www.w3.org/1999/xlink" x="0px" y="0px"
	 viewBox="0 0 200 200" style="enable-background:new 0 0 200 200;" xml:space="preserve">
<g>
	<path d="M135.4,124.7c3.6,0,7.1-1.2,9.5-3.6c4.8-4.8,4.8-11.9,1.2-15.4l-22.6-22.6c19-17.8,42.8-22.6,74.8-15.4l-3.6-3.6
		c-27.3-27.3-73.6-53.4-108.1-19L64.2,22.6C59.4,19,52.3,19,47.5,23.8c-2.4,2.4-3.6,5.9-3.6,9.5c1.2,29.7,1.2,90.3,1.2,90.3
		S105.7,123.5,135.4,124.7z"/>
	<path d="M155.6,84.3v9.9h0v57.4h0v11.1H29.7V13.1H19c-5.9,0-10.7,4.8-10.7,10.7V171c0,5.9,4.8,10.7,10.7,10.7h147.3
		c5.9,0,10.7-4.8,10.7-10.7V80.8C171,79.6,162.7,79.6,155.6,84.3z"/>
</g>
</svg>
