<?xml version="1.0" encoding="utf-8"?>
<!-- Generator: Adobe Illustrator 22.0.0, SVG Export Plug-In . SVG Version: 6.00 Build 0)  -->
<svg version="1.1" id="图层_1" xmlns="http://www.w3.org/2000/svg" xmlns:xlink="http://www.w3.org/1999/xlink" x="0px" y="0px"
	 viewBox="0 0 200 200" style="enable-background:new 0 0 200 200;" xml:space="preserve">
<path d="M45,183.2V66.3c0-4.7-3.6-8.2-7.9-8.2l-23.7,0c-4.3,0-7.9,3.9-7.9,8.2v116.9H45L45,183.2z M95.1,183.2V16.2
	c0-4.7-3.6-8.6-7.9-8.6H63.6c-4.3,0-7.9,3.9-7.9,8.6v167.1H95.1L95.1,183.2z M145.3,183.2v-73.8c0-4.7-3.6-8.6-7.9-8.6h-23.7
	c-4.3,0-7.9,3.9-7.9,8.6l0,73.8H145.3L145.3,183.2z M195.5,183.2V66.3c0-4.7-3.6-8.2-7.9-8.2H164c-4.3,0-7.9,3.9-7.9,8.2v116.9
	H195.5L195.5,183.2z"/>
</svg>
