<?xml version="1.0" encoding="utf-8"?>
<!-- Generator: Adobe Illustrator 22.0.0, SVG Export Plug-In . SVG Version: 6.00 Build 0)  -->
<svg version="1.1" id="图层_1" xmlns="http://www.w3.org/2000/svg" xmlns:xlink="http://www.w3.org/1999/xlink" x="0px" y="0px"
	 viewBox="0 0 200 200" style="enable-background:new 0 0 200 200;" xml:space="preserve">
<path d="M195,113.4c0,2.1-0.7,3.9-2.2,5.3s-3.3,2.2-5.3,2.2h-26.6c0,13.5-2.7,25.1-8,34.4l24.6,24.8c1.5,1.5,2.2,3.3,2.2,5.3
	s-0.7,3.9-2.2,5.3s-3.3,2.2-5.3,2.2s-3.9-0.7-5.3-2.2l-23.5-23.5c-0.4,0.4-1,0.9-1.8,1.5c-0.7,0.6-2.5,1.8-5,3.4
	c-2.5,1.6-5,3.1-7.7,4.3c-2.7,1.3-5.8,2.4-9.8,3.4c-3.9,1-7.7,1.5-11.6,1.5V75.4h-15v106.3c-4,0-8-0.6-12-1.6c-4-1-7.4-2.4-10.4-3.9
	c-2.8-1.5-5.5-3.1-7.9-4.6s-4-2.8-5.2-3.9l-1.8-1.6l-21.7,24.5c-1.6,1.6-3.4,2.5-5.6,2.5c-1.9,0-3.6-0.6-5-1.9
	c-1.5-1.5-2.4-3.1-2.4-5.3c-0.1-2.1,0.4-4,1.8-5.5l23.9-26.9c-4.6-9.1-7-19.9-7-32.5H12.6c-2.1,0-3.9-0.7-5.3-2.2S5,115.4,5,113.4
	s0.7-3.9,2.2-5.3s3.3-2.2,5.3-2.2h26.6v-35L18.7,50.3c-1.5-1.5-2.2-3.3-2.2-5.3s0.7-3.9,2.2-5.3s3.3-2.2,5.3-2.2s3.9,0.7,5.3,2.2
	l20.5,20.5H150l20.5-20.5c1.5-1.5,3.3-2.2,5.3-2.2s3.9,0.7,5.3,2.2s2.2,3.3,2.2,5.3s-0.7,3.9-2.2,5.3l-20.3,20.5v34.9h26.6
	c2.1,0,3.9,0.7,5.3,2.2C194.3,109.5,195,111.3,195,113.4L195,113.4z M138,44.9H62c0-10.5,3.7-19.4,11.1-26.9S89.5,6.9,100,6.9
	s19.4,3.7,26.9,11.1C134.3,25.3,138,34.4,138,44.9L138,44.9z"/>
</svg>
