<?xml version="1.0" encoding="utf-8"?>
<!-- Generator: Adobe Illustrator 22.0.0, SVG Export Plug-In . SVG Version: 6.00 Build 0)  -->
<svg version="1.1" id="图层_1" xmlns="http://www.w3.org/2000/svg" xmlns:xlink="http://www.w3.org/1999/xlink" x="0px" y="0px"
	 viewBox="0 0 200 200" style="enable-background:new 0 0 200 200;" xml:space="preserve">
<path d="M69.9,5.3c-14.7-0.4-29.5-0.4-44.2,0C13.2,5.6,5.8,13,5.4,25.6C5,39.9,5,54.2,5.4,68.5c0.3,13.2,7.8,20.6,20.9,21.1
	c7.2,0.3,14.3,0,21.5,0c0,0,0,0,0,0c6.8,0,13.5,0,20.3,0c0.8,0,1.6,0,2.4-0.1c11.3-0.9,18.9-7.3,19.4-18.7c0.7-15.5,0.7-31,0.1-46.5
	C89.4,12.3,82,5.6,69.9,5.3z"/>
<path d="M90,133.7c-1.1-13.9-9.7-22.9-23.7-23.8c-12.3-0.8-24.7-0.8-37,0C15,110.8,5.9,120.5,5.4,134.8c-0.4,11.5-0.4,23.1,0,34.6
	c0.5,14.3,9.8,24.3,23.8,25.1c12.3,0.7,24.7,0.7,37,0c13.7-0.7,22.6-10,23.8-23.8c0.5-5.9,0.1-11.9,0.1-17.9c0,0,0,0,0,0
	C90.1,146.4,90.5,140,90,133.7z"/>
<path d="M129.3,89.5c15.5,0.5,31,0.5,46.5,0c11.2-0.4,18.2-8,18.8-19.2c0.4-7.5,0.1-15.1,0.1-22.7c0,0,0,0,0,0c0-6.8,0-13.5,0-20.3
	c0-0.8,0-1.6,0-2.4c-0.8-12-7.6-19.3-19.6-19.6c-15.1-0.4-30.2-0.4-45.4,0c-11.4,0.3-18.9,7.4-19.3,18.6c-0.5,15.5-0.5,31,0,46.5
	C110.8,81.6,118.2,89.2,129.3,89.5z"/>
<path d="M194.7,131.6c-0.3-14.1-7.2-21.2-21.3-21.9c-6.8-0.4-13.6-0.1-20.3-0.1c0,0,0,0,0,0c-7.2,0-14.4,0-21.5,0
	c-0.8,0-1.6,0.1-2.4,0.2c-11.4,1.5-18.4,8.3-18.7,19.6c-0.4,15.1-0.4,30.3,0,45.5c0.3,11.2,7.6,18.7,18.7,19.6
	c8.3,0.6,16.8,0.5,25.1,0.1c6.7-0.3,11.1-5.1,10.8-10.5c-0.3-5-4.3-8.7-10.7-9.3c-4.4-0.4-8.8,0.1-13.2-0.4
	c-7.7-0.8-10.6-3.7-11-11.5c-0.4-7.2-0.4-14.4,0-21.5c0.4-7.9,3.4-11,10.9-11.4c7.6-0.4,15.2-0.4,22.7,0c7.7,0.4,10.6,3.3,11.1,11.1
	c0.3,4.4-0.2,8.8,0.2,13.2c0.6,6.5,4.2,9.9,9.8,9.9c5.6,0,9.3-3.3,9.7-9.9C195,146.8,194.9,139.2,194.7,131.6z"/>
</svg>
