<?xml version="1.0" encoding="utf-8"?>
<!-- Generator: Adobe Illustrator 22.0.0, SVG Export Plug-In . SVG Version: 6.00 Build 0)  -->
<svg version="1.1" id="图层_1" xmlns="http://www.w3.org/2000/svg" xmlns:xlink="http://www.w3.org/1999/xlink" x="0px" y="0px"
	 viewBox="0 0 200 200" style="enable-background:new 0 0 200 200;" xml:space="preserve">
<style type="text/css">
</style>
<path class="st0" d="M193.5,110c0.3-0.5,0.5-0.9,0.8-1.4c0.3-0.6,0.7-1.1,0.9-1.7c0.2-0.6,0.4-1.2,0.6-1.8c0-0.5,0.4-1,0.5-1.5
	c0.2-1.1,0.4-2.3,0.4-3.5c0-1.2-0.1-2.3-0.4-3.5c0-0.5-0.3-1-0.5-1.5c-0.2-0.6-0.3-1.2-0.6-1.8c-0.3-0.6-0.6-1.2-0.9-1.7
	c-0.3-0.5-0.5-1-0.8-1.4c-0.7-1-1.5-1.9-2.3-2.7L109.9,8.6c-8.3-6-20.2-4.4-26.4,3.6c-5,6.5-5,15.4,0,21.9L133,81.9H22.2
	c-10.3,1.4-17.5,10.7-16,20.6c1.2,8,7.7,14.3,16,15.5H133l-49.5,47.8c-6.3,8.1-4.6,19.5,3.8,25.5c6.7,4.9,15.9,4.9,22.6,0l81.3-78.6
	C192.1,111.9,192.9,111,193.5,110z"/>
</svg>
