<?xml version="1.0" encoding="utf-8"?>
<!-- Generator: Adobe Illustrator 22.0.0, SVG Export Plug-In . SVG Version: 6.00 Build 0)  -->
<svg version="1.1" id="图层_1" xmlns="http://www.w3.org/2000/svg" xmlns:xlink="http://www.w3.org/1999/xlink" x="0px" y="0px"
	 viewBox="0 0 200 200" style="enable-background:new 0 0 200 200;" xml:space="preserve">
<path d="M165.6,84h-12V54.8C153.5,27.3,129.4,5,99.9,5C70.3,5,46.3,27.3,46.3,54.8V84H34.4c-9.7,0-17.6,7.3-17.6,16.3v78.4
	c0,9,7.9,16.3,17.6,16.3h131.1c9.7,0,17.6-7.3,17.6-16.3v-78.4C183.1,91.3,175.2,84,165.6,84z M68.7,54.8c0-16,14-29,31.2-29
	s31.2,13,31.2,29V84H68.7C68.7,84,68.7,54.8,68.7,54.8z M111.5,157.5c0,6.2-5.4,11.2-12.1,11.2c-6.7,0-12.1-5-12.1-11.2v-33.9
	c0-6.2,5.4-11.2,12.1-11.2c6.7,0,12.1,5,12.1,11.2V157.5z"/>
</svg>
