<?xml version="1.0" encoding="utf-8"?>
<!-- Generator: Adobe Illustrator 22.0.0, SVG Export Plug-In . SVG Version: 6.00 Build 0)  -->
<svg version="1.1" id="图层_1" xmlns="http://www.w3.org/2000/svg" xmlns:xlink="http://www.w3.org/1999/xlink" x="0px" y="0px"
	 viewBox="0 0 200 200" style="enable-background:new 0 0 200 200;" xml:space="preserve">
<style type="text/css">
</style>
<path class="st0" d="M11.5,112.7l81.3,78.6c6.7,4.9,15.9,4.9,22.6,0c8.4-6,10.1-17.4,3.8-25.5L69.7,118h110.8
	c8.3-1.2,14.8-7.5,16-15.5c1.5-9.9-5.7-19.2-16-20.6H69.7l49.5-47.8c5-6.5,5-15.4,0-21.9c-6.2-8-18.1-9.6-26.4-3.6L11.5,87.5
	c-0.8,0.8-1.6,1.7-2.3,2.7c-0.3,0.4-0.5,0.9-0.8,1.4c-0.3,0.5-0.6,1.1-0.9,1.7c-0.3,0.6-0.4,1.2-0.6,1.8c-0.2,0.5-0.5,1-0.5,1.5
	C6.1,97.8,6,98.9,6,100.1s0.2,2.4,0.4,3.5c0.1,0.5,0.5,1,0.5,1.5c0.2,0.6,0.4,1.2,0.6,1.8s0.6,1.1,0.9,1.7c0.3,0.5,0.5,0.9,0.8,1.4
	C9.8,111,10.6,111.9,11.5,112.7z"/>
</svg>
