<?xml version="1.0" encoding="utf-8"?>
<!-- Generator: Adobe Illustrator 22.0.0, SVG Export Plug-In . SVG Version: 6.00 Build 0)  -->
<svg version="1.1" id="图层_1" xmlns="http://www.w3.org/2000/svg" xmlns:xlink="http://www.w3.org/1999/xlink" x="0px" y="0px"
	 viewBox="0 0 200 200" style="enable-background:new 0 0 200 200;" xml:space="preserve">
<path d="M159.1,110.2c-19.8,0-35.9,15.9-35.9,35.5c0,19.1,15.8,35.1,35.2,35.5h0.8c19.8,0,35.9-15.9,35.9-35.5
	C195,126.1,178.9,110.2,159.1,110.2z"/>
<path d="M76.9,145.7c0-19.6-16.1-35.5-35.9-35.5C21.1,110.2,5,126.1,5,145.7c0,19.1,15.8,35.1,35.1,35.5h0.8
	C60.8,181.2,76.9,165.3,76.9,145.7z"/>
<path d="M102.1,83.6h0.8c19.8,0,35.9-15.9,35.9-35.5c0-19.6-16.1-35.5-35.9-35.5c-19.8,0-35.9,15.9-35.9,35.5
	C66.9,67.2,82.7,83.2,102.1,83.6L102.1,83.6z"/>
<path d="M41.3,108.9l3,0.1l0.3-2.1c2.5-15.1,11.3-28.7,24.1-37.4l1.8-1.2l-1-1.9c-1.5-2.7-2.6-5.6-3.3-8.7l-0.8-3.3l-2.9,1.8
	c-18.1,11.4-30.1,30-32.7,51l-0.4,3.5l3.5-0.8C35.5,109.2,38.4,108.9,41.3,108.9z M134.5,67.5l-1.1,1.9l1.8,1.3
	c12.1,8.8,20,21.7,22.5,36.3l0.3,2l2,0.1c3.2,0.1,6.4,0.6,9.5,1.4l3.6,1l-0.4-3.7c-2.4-20.3-13.6-38.5-30.7-50.2l-2.8-1.9l-0.9,3.3
	C137.3,61.9,136.1,64.8,134.5,67.5L134.5,67.5z M129.4,167.8l-1.2-1.6l-1.8,0.9c-7.9,3.8-16.4,5.8-25.2,5.8
	c-9.3,0-18.2-2.2-26.5-6.4l-1.9-1l-1.3,1.7c-1.9,2.6-4,4.9-6.5,6.8l-2.7,2.2l3.1,1.7c10.8,6.1,23.2,9.4,35.8,9.4
	c12.1,0,24.1-3,34.6-8.8l3.3-1.8l-2.9-2.3C133.5,172.6,131.3,170.4,129.4,167.8L129.4,167.8z"/>
</svg>
