<?xml version="1.0" standalone="no"?><!DOCTYPE svg PUBLIC "-//W3C//DTD SVG 1.1//EN" "http://www.w3.org/Graphics/SVG/1.1/DTD/svg11.dtd"><svg t="1585821290764" class="icon" viewBox="0 0 1024 1024" version="1.1" xmlns="http://www.w3.org/2000/svg" p-id="8077" xmlns:xlink="http://www.w3.org/1999/xlink" width="200" height="200"><defs><style type="text/css"></style></defs><path d="M804.032 185.536h-78.72V326.4H297.248V185.536H219.968c-16.16 0-29.248 14.272-29.248 31.904v654.656c0 17.632 13.088 31.904 29.248 31.904h584.032c16.16 0 29.248-14.272 29.248-31.904V217.408c0-17.6-13.088-31.872-29.216-31.872z m-44.064 273.12L483.392 797.12c1.28 4.192-4.992 4.832-9.184 1.408L272.96 633.824a9.888 9.888 0 0 1-1.408-13.856l33.568-41.088a9.888 9.888 0 0 1 13.856-1.408l152.704 126.304 236.576-289.472c3.424-5.856 9.664-6.496 13.888-3.04l39.008 31.84c4.224 3.392 6.624 6.624-1.184 15.552z m-128.256-314.176v-25.888a47.68 47.68 0 0 0-47.68-47.648h-144.32a47.68 47.68 0 0 0-47.68 47.648v25.888h-56.064V272.96h350.72V144.48h-54.976z m-119.584 81.152a52.544 52.544 0 1 1 0-105.12c29.056 0 52.608 23.52 52.608 52.576-0.032 33.28-23.584 52.544-52.608 52.544z m0 0" p-id="8078"></path></svg>