<?xml version="1.0" encoding="utf-8"?>
<!-- Generator: Adobe Illustrator 22.0.0, SVG Export Plug-In . SVG Version: 6.00 Build 0)  -->
<svg version="1.1" id="图层_1" xmlns="http://www.w3.org/2000/svg" xmlns:xlink="http://www.w3.org/1999/xlink" x="0px" y="0px"
	 viewBox="0 0 200 200" style="enable-background:new 0 0 200 200;" xml:space="preserve">
<path d="M89.4,121c0-2.1,0-4.4,0.1-6.8c2.5-2.8,8.3-9.9,10.6-19.6c2.3-1.1,4.3-3.4,5.5-6.7c1.7-4.6,1.8-10.9-1.5-15
	c0-0.1,0-0.1,0-0.2c0.6-5.7,2.3-21-6.9-31C92,36,84,31.5,73.7,31.2C63.4,31.5,55.5,36,50.2,41.8c-9.2,10-7.5,25.2-6.9,31
	c0,0.1,0,0.1,0,0.2c-3.4,4.1-3.2,10.4-1.5,15c1.2,3.3,3.2,5.6,5.5,6.7c2.3,9.7,8,16.8,10.6,19.6c0,2.4,0,4.5,0,6.6
	c0,23-52.8,18-52.8,41.6v6.4h137.7v-6.4C142.6,138.6,89.4,143.6,89.4,121L89.4,121z"/>
<path d="M154.5,118.1c0-1.6,0-3.4,0-5.2c1.9-2.1,6.3-7.5,8.1-14.9c1.8-0.8,3.3-2.6,4.2-5.1c1.3-3.5,1.4-8.3-1.1-11.4
	c0-0.1,0-0.1,0-0.2c0.5-4.4,1.8-16-5.2-23.6c-4-4.4-10.1-7.8-17.9-8.1c-7.9,0.2-13.9,3.7-17.9,8.1c-7,7.6-5.7,19.2-5.3,23.6
	c0,0.1,0,0.1,0,0.2c-2.6,3.1-2.5,7.9-1.1,11.4c0.9,2.5,2.4,4.3,4.2,5.1c1.7,7.4,6.1,12.8,8.1,14.9c0,1.9,0,3.4,0,5
	c0,6.6-5.7,10.1-12.7,13c-6.2,2.5,10,4.2,21.5,9.8c10.2,4.9,15.5,13.8,15.5,13.8h40.1v-4.9C195.1,131.4,154.5,135.3,154.5,118.1
	L154.5,118.1z"/>
</svg>
