<?xml version="1.0" encoding="utf-8"?>
<!-- Generator: Adobe Illustrator 22.0.0, SVG Export Plug-In . SVG Version: 6.00 Build 0)  -->
<svg version="1.1" id="图层_1" xmlns="http://www.w3.org/2000/svg" xmlns:xlink="http://www.w3.org/1999/xlink" x="0px" y="0px"
	 viewBox="0 0 200 200" style="enable-background:new 0 0 200 200;" xml:space="preserve">
<g>
	<path d="M145.2,12.5H25.9c-7.4,0-13.3,6-13.3,13.3V174c0,7.4,6,13.3,13.3,13.3H174c7.4,0,13.3-6,13.3-13.3V54.1L145.2,12.5z
		 M34.4,38.9c0-1.9,1.5-3.4,3.4-3.4H124c1.9,0,3.7,2.2,4.5,3.1l21.9,20.6c0,1.9-1.5,3.4-3.4,3.4H37.8c-1.9,0-3.4-1.5-3.4-3.4V38.9z
		 M165,164.2c-0.3,0.3-0.6,0.5-0.8,0.8c-0.6,0.4-1.2,0.6-2,0.6H37.8c-0.9,0-1.7-0.3-2.3-0.9c-0.1-0.1-0.2-0.2-0.3-0.3
		c-0.5-0.6-0.8-1.4-0.8-2.2v-60.9c0-1.9,1.5-3.4,3.4-3.4h124.3c1.9,0,3.4,1.5,3.4,3.4v60.9h0C165.6,163,165.4,163.7,165,164.2z"/>
	<path d="M146.9,109.5h-20.9c-1.7,0-3.2,1.4-3.2,3.2v20.9c0,1.7,1.4,3.2,3.2,3.2h20.9c1.7,0,3.2-1.4,3.2-3.2v-20.9
		C150.1,110.9,148.6,109.5,146.9,109.5z"/>
</g>
</svg>
