<?xml version="1.0" encoding="utf-8"?>
<!-- Generator: Adobe Illustrator 22.0.0, SVG Export Plug-In . SVG Version: 6.00 Build 0)  -->
<svg version="1.1" id="图层_1" xmlns="http://www.w3.org/2000/svg" xmlns:xlink="http://www.w3.org/1999/xlink" x="0px" y="0px"
	 viewBox="0 0 200 200" style="enable-background:new 0 0 200 200;" xml:space="preserve">
<style type="text/css">

</style>
<path class="st0" d="M194.2,164.6l-16.9-16.9c-2.9-2.9-3.6-7.4-1.7-11c17.4-33.6,12-75.9-16-104c-17.4-17.4-40.1-26-62.9-26h0
	c-23.1,0-46.3,8.9-63.8,26.8C-1.4,68.2-1.3,124.5,33,158.9c17.4,17.4,40.2,26.1,63,26.1c14.1,0,28.2-3.3,41.1-10
	c1.4-0.7,2.9-1.1,4.4-1.1c2.4,0,4.8,0.9,6.7,2.7l16.9,16.9c2,2,4.6,3,7.2,3c2.6,0,5.2-1,7.2-3l14.7-14.7
	C198.2,175,198.2,168.6,194.2,164.6z M30.7,69.2l-1.2,2.3c-0.7,1.4-2.2,2.2-3.7,2.2c-0.6,0-1.3-0.1-1.9-0.5c-2-1-2.8-3.5-1.8-5.5
	l1.2-2.3c1-2,3.5-2.8,5.5-1.8C30.9,64.7,31.7,67.2,30.7,69.2z M37.3,57.9c-0.8,1.1-2.1,1.8-3.4,1.8c-0.8,0-1.7-0.3-2.3-0.7
	c-1.9-1.3-2.3-3.9-1-5.7c9.8-14,20.5-22,21-22.3c1.8-1.3,4.4-1,5.7,0.9c1.3,1.8,1,4.4-0.9,5.7C56.3,37.6,46.2,45.1,37.3,57.9z
	 M96.9,139.9c-25.2,0-45.5-20.4-45.5-45.5c0-25.2,20.4-45.5,45.5-45.5c25.2,0,45.5,20.4,45.5,45.5
	C142.5,119.5,122.1,139.9,96.9,139.9z"/>
</svg>
