<?xml version="1.0" encoding="utf-8"?>
<!-- Generator: Adobe Illustrator 22.0.0, SVG Export Plug-In . SVG Version: 6.00 Build 0)  -->
<svg version="1.1" id="图层_1" xmlns="http://www.w3.org/2000/svg" xmlns:xlink="http://www.w3.org/1999/xlink" x="0px" y="0px"
	 viewBox="0 0 200 200" style="enable-background:new 0 0 200 200;" xml:space="preserve">
<path d="M86.3,84c-0.7,0.7-0.6,1.8,0.1,2.4c7.9,6.6,19.6,6.3,27.1-1l0.2-0.2l8.6-8.6c0.6-0.6,1.7-0.6,2.3,0L160,112
	c2.5,2.5,2.5,6.6,0,9.2l-3.6,3.6c-2.5,2.5-6.6,2.5-9.2,0l-20.3-20.3c-1.2-1.2-3.2-1.3-4.5-0.2c-1.4,1.2-1.4,3.3-0.2,4.7l0,0
	l20.3,20.3c2.5,2.5,2.5,6.6,0,9.2l-3.4,3.4c-2.5,2.5-6.6,2.5-9.2,0l-20.2-20.3c-1.2-1.2-3.2-1.3-4.5-0.2c-1.4,1.2-1.4,3.3-0.2,4.7
	l0,0l20.3,20.3c2.5,2.5,2.5,6.6,0,9.2l-3.4,3.4c-2.5,2.5-6.6,2.5-9.2,0l-20.3-20.3c-1.2-1.2-3.2-1.3-4.5-0.2
	c-1.4,1.2-1.4,3.3-0.2,4.7l0,0l20.3,20.3c2.5,2.5,2.5,6.6,0,9.2l-3.7,3.7c-2.5,2.5-6.6,2.5-9.2,0L7,88.2c-2.5-2.5-2.5-6.6,0-9.2
	l55.4-55.4c2.5-2.5,6.6-2.5,9.2,0L100,52l28.6-28.6c2.5-2.5,6.6-2.5,9.2,0l55.4,55.4c2.5,2.5,2.5,6.6,0,9.2l-20.7,20.6
	c-1.3,1.3-3.3,1.3-4.6,0l-4.6-4.6c-1.3-1.3-1.3-3.3,0-4.6l16-16l-46.3-46.3l-24.1,24.1L86.3,84z"/>
</svg>
