<?xml version="1.0" encoding="utf-8"?>
<!-- Generator: Adobe Illustrator 22.0.0, SVG Export Plug-In . SVG Version: 6.00 Build 0)  -->
<svg version="1.1" id="图层_1" xmlns="http://www.w3.org/2000/svg" xmlns:xlink="http://www.w3.org/1999/xlink" x="0px" y="0px"
	 viewBox="0 0 200 200" style="enable-background:new 0 0 200 200;" xml:space="preserve">
<path d="M64.2,162.1c-3.6,3.8-7.2,7.6-10.7,11.4c-3.3,3.5-7.9,4.2-12,1.9c-0.8-0.5-1.6-1.1-2.2-1.8c-4.3-4.2-8.5-8.4-12.7-12.6
	c-2.8-2.8-4-6.2-2.6-10c0.6-1.5,1.6-2.9,2.7-4.1c3.4-3.5,7-6.9,10.5-10.3c0.5-0.5,0.6-0.9,0.3-1.6c-2-4.5-3.9-9-5.8-13.5
	c-0.4-0.8-0.8-1.1-1.7-1.1c-4.8,0.1-9.7-0.1-14.5,0.1c-5,0.2-8.7-3.5-9.9-7.5c-0.4-1.3-0.6-2.8-0.6-4.2C5,102.8,5,96.9,5,91
	c0-4.3,1.7-7.7,5.4-10.1c1.4-0.9,2.9-1.3,4.5-1.3c5.1,0,10.2,0,15.3,0c0.9,0,1.2-0.3,1.5-1c1.6-4,3.2-7.9,4.9-11.8
	c0.4-0.9,0.8-1.7,1.3-2.6c-0.2-0.2-0.4-0.5-0.6-0.7c-3.5-3.3-7-6.6-10.6-10c-4.4-4.1-4.5-10-0.3-14.3c4.2-4.3,8.5-8.6,12.8-12.9
	c4.2-4.2,9.8-4.1,14,0.1c3.5,3.5,6.9,7.1,10.3,10.6c0.5,0.5,0.9,0.6,1.6,0.3c4.5-2,9-3.9,13.5-5.8c0.8-0.3,1.1-0.7,1.1-1.7
	c-0.1-4.8,0.1-9.7-0.1-14.5c-0.2-5,3.5-8.7,7.5-9.9c1.3-0.4,2.8-0.6,4.2-0.6C97.2,5,103.1,5,109.1,5c4.2,0,7.6,1.8,10,5.3
	c0.9,1.4,1.3,2.9,1.3,4.5c0,5.1,0,10.2,0,15.3c0,0.9,0.3,1.2,1,1.5c4.8,2,9.7,3.9,14.5,5.9L136,38c0.2-0.3,0.4-0.7,0.7-1
	c3.3-3.5,6.6-7.1,10-10.6c3.3-3.5,7.9-4.2,12-1.9c0.8,0.5,1.6,1.1,2.2,1.8c4.3,4.2,8.5,8.4,12.7,12.6c2.8,2.8,4,6.2,2.5,10
	c-0.6,1.5-1.6,2.9-2.7,4.1c-3.4,3.5-7,6.9-10.5,10.3c-0.5,0.5-0.6,0.9-0.3,1.6c2,4.5,3.9,9,5.8,13.5c0.4,0.9,0.8,1.1,1.7,1.1
	c4.8-0.1,9.7,0.1,14.5-0.1c4.9-0.2,8.6,3.4,9.8,7.4c0.4,1.4,0.6,2.8,0.6,4.3c0.1,5.9,0.1,11.8,0,17.7c0,4.3-1.7,7.7-5.4,10.1
	c-1.4,0.9-2.9,1.3-4.5,1.3c-5.1,0-10.1,0-15.2,0c-0.9,0-1.3,0.3-1.7,1.2c-1.5,3.8-3.1,7.7-4.7,11.5c-0.4,1-0.9,1.9-1.5,3.1
	c0.2,0.2,0.6,0.3,0.8,0.5c3.5,3.3,7.1,6.6,10.6,10c4,3.8,4.6,9.4,0.8,13.5c-4.5,4.9-9.2,9.6-14,14.1c-4.1,3.8-9.4,3.4-13.3-0.6
	c-3.5-3.6-7-7.1-10.4-10.7c-0.5-0.5-0.9-0.6-1.6-0.3c-4.5,2-9,3.9-13.5,5.8c-0.9,0.4-1.1,0.8-1.1,1.7c0.1,4.8-0.1,9.7,0.1,14.5
	c0.2,4.9-3.4,8.6-7.4,9.8c-1.4,0.4-2.8,0.6-4.3,0.6c-5.9,0.1-11.9,0.1-17.8,0c-4.2,0-7.6-1.8-10-5.4c-0.9-1.4-1.3-2.9-1.3-4.5
	c0-5.1,0-10.1,0-15.2c0-0.9-0.3-1.3-1.1-1.7c-4-1.6-7.9-3.2-11.8-4.9C65.9,163,65.1,162.6,64.2,162.1L64.2,162.1z M142.9,99.9
	c0-23.6-19.2-42.8-42.8-42.8c-23.7,0-42.9,19.3-42.9,43c0.1,23.6,19.3,42.8,43,42.8C123.7,142.8,142.9,123.5,142.9,99.9z"/>
</svg>
