<?xml version="1.0" standalone="no"?><!DOCTYPE svg PUBLIC "-//W3C//DTD SVG 1.1//EN" "http://www.w3.org/Graphics/SVG/1.1/DTD/svg11.dtd"><svg t="1590023347596" class="icon" viewBox="0 0 1024 1024" version="1.1" xmlns="http://www.w3.org/2000/svg" p-id="4534" xmlns:xlink="http://www.w3.org/1999/xlink" width="200" height="200"><defs><style type="text/css"></style></defs><path d="M0 110.08A110.08 110.08 0 0 1 110.08 0h235.52A110.08 110.08 0 0 1 455.68 110.08V440.32a15.36 15.36 0 0 1-15.36 15.36H110.08A110.08 110.08 0 0 1 0 345.6v-235.52z m61.44 10.24c0-32.5632 26.3168-58.88 58.88-58.88h215.04c32.5632 0 58.88 26.3168 58.88 58.88V394.24H120.32A58.88 58.88 0 0 1 61.44 335.36v-215.04z m962.56-10.24A110.08 110.08 0 0 0 913.92 0h-235.52a110.08 110.08 0 0 0-110.08 110.08V440.32a15.36 15.36 0 0 0 15.36 15.36h330.24A110.08 110.08 0 0 0 1024 345.6v-235.52z m-61.44 10.24a58.88 58.88 0 0 0-58.88-58.88h-215.04a58.88 58.88 0 0 0-58.88 58.88V394.24h273.92a58.88 58.88 0 0 0 58.88-58.88v-215.04zM0 913.92A110.08 110.08 0 0 0 110.08 1024h235.52a110.08 110.08 0 0 0 110.08-110.08V583.68a15.36 15.36 0 0 0-15.36-15.36H110.08A110.08 110.08 0 0 0 0 678.4v235.52z m61.44-10.24c0 32.5632 26.3168 58.88 58.88 58.88h215.04a58.88 58.88 0 0 0 58.88-58.88V629.76H120.32a58.88 58.88 0 0 0-58.88 58.88v215.04z m962.56 10.24A110.08 110.08 0 0 1 913.92 1024h-235.52a110.08 110.08 0 0 1-110.08-110.08V583.68a15.36 15.36 0 0 1 15.36-15.36h330.24A110.08 110.08 0 0 1 1024 678.4v235.52z m-61.44-10.24a58.88 58.88 0 0 1-58.88 58.88h-215.04a58.88 58.88 0 0 1-58.88-58.88V629.76h273.92c32.5632 0 58.88 26.3168 58.88 58.88v215.04z" p-id="4535"></path></svg>