<?xml version="1.0" encoding="utf-8"?>
<!-- Generator: Adobe Illustrator 22.0.0, SVG Export Plug-In . SVG Version: 6.00 Build 0)  -->
<svg version="1.1" id="图层_1" xmlns="http://www.w3.org/2000/svg" xmlns:xlink="http://www.w3.org/1999/xlink" x="0px" y="0px"
	 viewBox="0 0 200 200" style="enable-background:new 0 0 200 200;" xml:space="preserve">
<path d="M110.9,171.3v-42.7h19.5c2.4,0,4.3-2,4.3-4.3c0-1.1-0.4-2.1-1.1-2.9l-30.2-33c-1.6-1.8-4.4-1.9-6.1-0.3
	c-0.1,0.1-0.1,0.1-0.2,0.2l-31.5,33c-1.6,1.7-1.6,4.5,0.1,6.1c0.8,0.8,1.9,1.2,3,1.2h20.6v42.7h-41v0c-25-1.2-44.4-22.4-43.2-47.4
	c1.1-23.4,19.8-42.1,43.3-43.2c1.2-29.8,26.4-52.9,56.2-51.7c29.8,1.2,52.9,26.4,51.7,56.2l0,0c23.7,2.4,41,23.7,38.6,47.4
	c-2.2,21.2-19.5,37.6-40.7,38.7v0.1H110.9z"/>
</svg>
