<?xml version="1.0" encoding="utf-8"?>
<!-- Generator: Adobe Illustrator 22.0.0, SVG Export Plug-In . SVG Version: 6.00 Build 0)  -->
<svg version="1.1" id="图层_1" xmlns="http://www.w3.org/2000/svg" xmlns:xlink="http://www.w3.org/1999/xlink" x="0px" y="0px"
	 viewBox="0 0 200 200" style="enable-background:new 0 0 200 200;" xml:space="preserve">
<style type="text/css">
</style>
<path class="st0" d="M137,137.6c-22.1-8-29.1-14.8-29.1-29.3c0-8.7,6.7-5.9,9.7-21.8c1.2-6.6,7.2-0.1,8.3-15.2c0-6-3.2-7.5-3.2-7.5
	s1.7-8.9,2.3-15.8c0.8-8.6-4.9-30.6-35.5-30.6c-30.6,0-36.3,22.1-35.5,30.6c0.6,6.8,2.3,15.8,2.3,15.8S53,65.2,53,71.2
	c1.1,15.1,7.1,8.6,8.3,15.2c3,15.9,9.7,13.1,9.7,21.8c0,14.5-7,21.3-29.1,29.3c-22.1,8.1-36.5,16.3-36.5,21.9v18.8h168.2v-18.8
	C173.5,153.8,159.2,145.6,137,137.6z M144.2,58.8h44.1c3.9,0,7-3.1,7-7c0-3.9-3.1-7-7-7h-44.1c-3.8,0-7,3.1-7,7
	C137.3,55.6,140.4,58.8,144.2,58.8z"/>
<path class="st0" d="M188.4,76.7h-44.1c-3.8,0-7,3.1-7,7c0,3.8,3.1,7,7,7h44.1c3.9,0,7-3.1,7-7C195.4,79.8,192.2,76.7,188.4,76.7z
	 M170.2,108.5h-26c-3.8,0-7,3.1-7,7c0,3.9,3.1,7,7,7h26c3.9,0,7-3.1,7-7C177.2,111.7,174.1,108.5,170.2,108.5L170.2,108.5z"/>
</svg>
