<?xml version="1.0" encoding="utf-8"?>
<!-- Generator: Adobe Illustrator 22.0.0, SVG Export Plug-In . SVG Version: 6.00 Build 0)  -->
<svg version="1.1" id="图层_1" xmlns="http://www.w3.org/2000/svg" xmlns:xlink="http://www.w3.org/1999/xlink" x="0px" y="0px"
	 viewBox="0 0 200 200" style="enable-background:new 0 0 200 200;" xml:space="preserve">
<path d="M183.3,47.5c-0.6-5.8-4.9-10.6-10.6-11.9c-11.6-1.8-23-4.5-34.2-7.9c-11-4.5-21.3-10.6-30.6-18c-4.9-3.5-11.5-3.5-16.4,0
	C82.7,17.9,72.2,24,60.7,27.6C50,32,38.8,34.8,27.4,35.9c-5.9,1-10.2,5.9-10.5,11.9c-0.3,6-0.4,29.8-0.4,56
	c0,47.4,55.5,93.3,83.3,93.3c27.8,0,74.8-32.4,82.4-92.6C184.1,68.8,183.3,47.5,183.3,47.5L183.3,47.5z M95,139.3
	c-2.6,2.5-6.6,2.9-9.7,0.9l-1.5-1.3l-32-33.6c-3-3.3-2.8-8.4,0.5-11.4c3.2-3,8.3-2.8,11.2,0.4c0,0,0,0,0.1,0.1L90,122.3l52.2-49.8
	c3.2-3,8.3-2.8,11.2,0.4c0,0,0,0,0.1,0.1c3,3.3,2.8,8.4-0.5,11.4L95,139.3L95,139.3z"/>
</svg>
